<svg width="60" height="57" viewBox="0 0 60 57" fill="none" xmlns="http://www.w3.org/2000/svg">
<path d="M30.075 56.775C23.375 50.025 18.0375 44.575 14.0625 40.425C10.0875 36.275 7.0625 32.825 4.9875 30.075C2.9125 27.325 1.5625 24.975 0.9375 23.025C0.3125 21.075 0 18.9 0 16.5C0 11.9 1.6 8 4.8 4.8C8 1.6 11.9 0 16.5 0C18.75 0 20.925 0.4125 23.025 1.2375C25.125 2.0625 27 3.25 28.65 4.8L24 21H33L31.725 33.5625L30.45 46.125L39 18H30L35.325 2.1C36.575 1.4 37.8875 0.875 39.2625 0.525C40.6375 0.175 42.05 0 43.5 0C48.1 0 52 1.6 55.2 4.8C58.4 8 60 11.9 60 16.5C60 18.9 59.675 21.1 59.025 23.1C58.375 25.1 57 27.4875 54.9 30.2625C52.8 33.0375 49.775 36.4875 45.825 40.6125C41.875 44.7375 36.625 50.125 30.075 56.775ZM24.75 42.825L26.325 27H16.05L21.675 7.275C20.875 6.875 20.0375 6.5625 19.1625 6.3375C18.2875 6.1125 17.4 6 16.5 6C13.6 6 11.125 7.025 9.075 9.075C7.025 11.125 6 13.6 6 16.5C6 18.05 6.2875 19.6 6.8625 21.15C7.4375 22.7 8.4375 24.4625 9.8625 26.4375C11.2875 28.4125 13.2125 30.7125 15.6375 33.3375C18.0625 35.9625 21.1 39.125 24.75 42.825ZM38.85 39.225C44.4 33.575 48.3125 29.075 50.5875 25.725C52.8625 22.375 54 19.3 54 16.5C54 13.6 52.975 11.125 50.925 9.075C48.875 7.025 46.4 6 43.5 6C42.95 6 42.4 6.0375 41.85 6.1125C41.3 6.1875 40.75 6.325 40.2 6.525L38.4 12H47.1L38.85 39.225Z" fill="#0D7FF2"/>
</svg>
